<?xml version="1.0" encoding="utf-8"?>
<!-- Generator: Adobe Illustrator 16.0.3, SVG Export Plug-In . SVG Version: 6.00 Build 0)  -->
<!DOCTYPE svg PUBLIC "-//W3C//DTD SVG 1.1//EN" "http://www.w3.org/Graphics/SVG/1.1/DTD/svg11.dtd">
<svg version="1.1" id="Layer_1" xmlns="http://www.w3.org/2000/svg" xmlns:xlink="http://www.w3.org/1999/xlink" x="0px" y="0px"
	 width="311.982px" height="61.5px" viewBox="0 0 311.982 61.5" enable-background="new 0 0 311.982 61.5" xml:space="preserve">
<g>
	<circle fill="#E2F3F6" cx="28.958" cy="31" r="28.75"/>
	<circle opacity="0.6" fill="#F5B28D" cx="54.458" cy="31" r="28.75"/>
</g>
<g>
	<g>
		<path fill="#686969" d="M109.458,43.734c-0.869,0.858-2.095,1.289-3.677,1.289s-2.721-0.353-3.413-1.056
			c-0.438-0.438-0.659-0.957-0.659-1.553s0.078-1.03,0.234-1.304c0.156-0.283,0.303-0.532,0.439-0.747
			c0.127-0.215,0.234-0.322,0.322-0.322c0.4,0.4,0.863,0.601,1.393,0.601c0.527,0,0.902-0.116,1.127-0.352
			c0.226-0.235,0.4-0.649,0.527-1.245l2.622-12.305c0.226-1.016,0.532-1.729,0.923-2.139c0.4-0.41,0.973-0.615,1.715-0.615h0.6
			c0.898,0,1.593,0.215,2.08,0.645c0.488,0.43,0.636,1.133,0.439,2.109l-2.77,12.876C110.961,41.502,110.327,42.874,109.458,43.734z
			 M112.666,22.435c-0.918,0-1.641-0.225-2.168-0.674c-0.527-0.449-0.796-1.074-0.807-1.875c0-0.801,0.299-1.484,0.895-2.051
			c0.605-0.566,1.367-0.845,2.285-0.835c0.918,0,1.641,0.22,2.168,0.659s0.791,1.06,0.791,1.86c0,0.811-0.293,1.499-0.879,2.065
			C114.345,22.152,113.583,22.435,112.666,22.435z"/>
		<path fill="#686969" d="M126.625,44.774c-0.879,0-1.567-0.216-2.065-0.646s-0.648-1.133-0.453-2.108l0.996-4.718
			c-1.104,1.357-2.5,2.036-4.189,2.036s-3.062-0.562-4.116-1.685c-1.055-1.133-1.587-2.656-1.597-4.57
			c0.01-2.51,0.718-4.692,2.124-6.548c1.405-1.856,3.218-2.783,5.435-2.783c1.006,0,1.958,0.234,2.856,0.703
			c0.897,0.469,1.567,1.133,2.007,1.992c0.742-1.641,2.061-2.461,3.955-2.461c0.703,0,1.283,0.142,1.742,0.425
			c0.177,0.098,0.26,0.186,0.25,0.264l-3.691,17.344c-0.225,1.016-0.537,1.729-0.938,2.139c-0.401,0.41-0.973,0.615-1.715,0.615
			H126.625z M121.367,34.154c0.43,0.479,1.016,0.718,1.758,0.718s1.4-0.27,1.979-0.806c0.576-0.537,0.967-1.274,1.172-2.212
			l0.381-1.831c-0.498-1.26-1.387-1.89-2.666-1.89c-1.006,0-1.803,0.405-2.389,1.216s-0.879,1.694-0.879,2.651
			C120.722,32.957,120.937,33.675,121.367,34.154z"/>
		<path fill="#686969" d="M138.476,39.383c-1.758,0-3.002-0.609-3.734-1.831c-0.732-1.221-0.874-2.881-0.426-4.979l1.23-5.83
			c0.225-1.035,0.532-1.753,0.924-2.153c0.399-0.4,0.98-0.601,1.742-0.601h0.602c0.879,0,1.562,0.215,2.051,0.645
			c0.488,0.43,0.635,1.133,0.439,2.109l-1.173,5.229c-0.205,0.82-0.161,1.479,0.132,1.978s0.83,0.747,1.611,0.747
			s1.488-0.431,2.124-1.289l1.437-6.665c0.186-1.016,0.482-1.729,0.894-2.139c0.411-0.41,0.996-0.615,1.758-0.615h0.601
			c0.898,0,1.592,0.215,2.08,0.645s0.625,1.133,0.41,2.109l-1.742,8.203c-0.177,0.879-0.195,1.522-0.06,1.934
			s0.464,0.693,0.981,0.851c0.02,0-0.006,0.098-0.073,0.293c-0.068,0.194-0.259,0.409-0.571,0.645
			c-0.605,0.459-1.393,0.688-2.357,0.688c-2.236,0-3.424-0.981-3.561-2.944C142.396,38.392,140.625,39.383,138.476,39.383z"/>
		<path fill="#686969" d="M159.937,39.383c-2.511,0-4.404-0.596-5.685-1.787c-1.28-1.19-1.919-2.777-1.919-4.761
			c0-2.676,0.898-4.858,2.695-6.548s4.019-2.534,6.664-2.534c2.013,0,3.556,0.42,4.629,1.26c1.074,0.84,1.611,2.021,1.611,3.545
			s-0.635,2.695-1.904,3.516c-1.27,0.83-3.477,1.245-6.62,1.245c-1.017,0-1.816-0.021-2.402-0.06
			c0.177,1.465,1.196,2.192,3.062,2.184c1.642,0,2.975-0.659,4-1.979c0.039-0.039,0.238-0.01,0.601,0.088
			c0.362,0.099,0.728,0.317,1.099,0.659c0.371,0.353,0.562,0.859,0.571,1.523c0,0.664-0.308,1.309-0.923,1.934
			C164.271,38.812,162.445,39.383,159.937,39.383z M163.275,28.543c0-0.322-0.16-0.601-0.482-0.835
			c-0.322-0.234-0.835-0.356-1.538-0.366c-0.703-0.01-1.387,0.239-2.051,0.747c-0.664,0.508-1.196,1.172-1.597,1.992h1.317
			C161.826,30.081,163.275,29.569,163.275,28.543z"/>
		<path fill="#686969" d="M177.396,24.573c0.713-0.547,1.5-0.82,2.358-0.82s1.562,0.234,2.108,0.703
			c0.548,0.469,0.82,1.016,0.82,1.641s-0.111,1.226-0.336,1.802c-0.226,0.566-0.631,1.055-1.217,1.465
			c-0.596,0.42-0.947,0.596-1.055,0.527c-0.518-0.615-1.227-0.923-2.124-0.923c-1.505,0-2.544,1.328-3.12,3.984l-0.719,3.397
			c-0.194,1.035-0.497,1.759-0.907,2.168c-0.41,0.41-0.991,0.615-1.743,0.615h-0.602c-0.897,0-1.592-0.22-2.08-0.659
			c-0.487-0.438-0.625-1.146-0.409-2.124l2.521-11.997c0.116-0.244,0.635-0.366,1.553-0.366c0.897,0,1.641,0.229,2.227,0.688
			s0.918,1.172,0.996,2.139C176.107,25.867,176.685,25.12,177.396,24.573z"/>
		<path fill="#686969" d="M185.234,45.023c-2.646,0-3.971-0.981-3.971-2.944c0-0.43,0.068-0.767,0.205-1.011
			c0.137-0.234,0.27-0.449,0.396-0.646c0.117-0.195,0.21-0.293,0.277-0.293c0.42,0.342,0.934,0.513,1.539,0.513
			c0.604,0,1.156-0.171,1.654-0.513c0.488-0.342,1.04-0.962,1.655-1.859l0.308-0.426c-0.703-0.225-1.123-0.806-1.26-1.743
			l-0.864-6.767c-0.146-1.045-0.396-1.782-0.747-2.212c-0.351-0.43-0.814-0.684-1.392-0.762c-0.078-0.02-0.034-0.239,0.132-0.659
			c0.156-0.42,0.527-0.84,1.113-1.26s1.332-0.63,2.24-0.63c2.324,0,3.595,1.709,3.81,5.127l0.265,3.809l5.098-8.906
			c0.039-0.059,0.381-0.034,1.024,0.073c0.654,0.107,1.304,0.396,1.948,0.864c0.645,0.468,0.967,1.06,0.967,1.772
			s-0.361,1.641-1.084,2.783l-7.017,11.001c-1.007,1.582-1.978,2.759-2.915,3.53C187.679,44.635,186.552,45.023,185.234,45.023z"/>
		<path fill="#686969" d="M202.974,39.09c-0.312,0.088-0.859,0.132-1.642,0.132s-1.367-0.146-1.758-0.438
			c-0.392-0.293-0.587-0.776-0.587-1.45c0-1.24,0.318-2.178,0.953-2.812c0.264-0.265,0.557-0.439,0.879-0.527
			s0.84-0.132,1.553-0.132c1.641,0,2.461,0.625,2.461,1.875s-0.327,2.191-0.98,2.827C203.579,38.826,203.286,39.002,202.974,39.09z"
			/>
		<path fill="#686969" d="M208.275,44.774c-0.897,0-1.592-0.216-2.08-0.646c-0.487-0.43-0.635-1.133-0.438-2.108l3.75-17.666
			c0.117-0.244,0.636-0.366,1.554-0.366c0.897,0,1.641,0.234,2.227,0.703c0.586,0.469,0.918,1.196,0.996,2.183
			c1.084-2.08,2.725-3.12,4.922-3.12c1.66,0,3.027,0.566,4.102,1.699c1.075,1.133,1.606,2.646,1.598,4.541
			c0,2.5-0.703,4.683-2.109,6.548c-1.396,1.865-3.197,2.798-5.404,2.798s-3.795-0.835-4.762-2.505l-1.1,5.187
			c-0.225,1.016-0.536,1.729-0.938,2.139c-0.4,0.41-0.972,0.615-1.714,0.615L208.275,44.774L208.275,44.774z M216.918,28.221
			c-1.104,0-2.03,0.488-2.782,1.465l-0.367,1.626c-0.225,1.073-0.111,1.952,0.338,2.637c0.449,0.684,1.151,1.024,2.108,1.024
			c0.968,0,1.733-0.399,2.3-1.2c0.557-0.802,0.836-1.681,0.836-2.637c0-0.957-0.221-1.685-0.66-2.183
			C218.251,28.465,217.661,28.221,216.918,28.221z"/>
		<path fill="#686969" d="M233.706,39.383c-2.511,0-4.404-0.596-5.685-1.787c-1.279-1.19-1.918-2.777-1.918-4.761
			c0-2.676,0.897-4.858,2.694-6.548c1.798-1.69,4.019-2.534,6.665-2.534c2.012,0,3.555,0.42,4.629,1.26s1.611,2.021,1.611,3.545
			s-0.635,2.695-1.904,3.516c-1.27,0.83-3.477,1.245-6.621,1.245c-1.016,0-1.816-0.021-2.402-0.06
			c0.177,1.465,1.197,2.192,3.062,2.184c1.641,0,2.975-0.659,3.999-1.979c0.039-0.039,0.239-0.01,0.601,0.088
			c0.362,0.099,0.729,0.317,1.1,0.659c0.371,0.353,0.562,0.859,0.57,1.523c0,0.664-0.308,1.309-0.922,1.934
			C238.042,38.812,236.215,39.383,233.706,39.383z M237.045,28.543c0-0.322-0.161-0.601-0.483-0.835
			c-0.321-0.234-0.834-0.356-1.537-0.366c-0.703-0.01-1.387,0.239-2.051,0.747c-0.664,0.508-1.197,1.172-1.598,1.992h1.318
			C235.595,30.081,237.045,29.569,237.045,28.543z"/>
		<path fill="#686969" d="M243.433,44.774c-0.898,0-1.593-0.216-2.08-0.646c-0.488-0.43-0.636-1.133-0.439-2.108l3.75-17.666
			c0.117-0.244,0.635-0.366,1.553-0.366c0.898,0,1.641,0.234,2.227,0.703c0.586,0.469,0.918,1.196,0.996,2.183
			c1.084-2.08,2.726-3.12,4.922-3.12c1.66,0,3.027,0.566,4.103,1.699c1.075,1.133,1.606,2.646,1.597,4.541
			c0,2.5-0.703,4.683-2.108,6.548c-1.396,1.865-3.198,2.798-5.405,2.798s-3.794-0.835-4.761-2.505l-1.099,5.187
			c-0.226,1.016-0.537,1.729-0.938,2.139s-0.972,0.615-1.714,0.615L243.433,44.774L243.433,44.774z M252.075,28.221
			c-1.104,0-2.031,0.488-2.783,1.465l-0.366,1.626c-0.225,1.073-0.111,1.952,0.338,2.637c0.448,0.684,1.151,1.024,2.108,1.024
			c0.967,0,1.733-0.399,2.3-1.2c0.557-0.802,0.835-1.681,0.835-2.637c0-0.957-0.22-1.685-0.659-2.183
			C253.408,28.465,252.816,28.221,252.075,28.221z"/>
		<path fill="#686969" d="M264.437,39.09c-0.312,0.088-0.858,0.132-1.641,0.132c-0.781,0-1.367-0.146-1.758-0.438
			s-0.586-0.776-0.586-1.45c0-1.24,0.316-2.178,0.951-2.812c0.265-0.265,0.558-0.439,0.88-0.527c0.321-0.088,0.84-0.132,1.553-0.132
			c1.642,0,2.461,0.625,2.461,1.875s-0.327,2.191-0.981,2.827C265.043,38.826,264.75,39.002,264.437,39.09z"/>
		<path fill="#686969" d="M272.333,43.734c-0.869,0.858-2.096,1.289-3.678,1.289c-1.581,0-2.719-0.353-3.412-1.056
			c-0.439-0.438-0.659-0.957-0.659-1.553s0.078-1.03,0.233-1.304c0.156-0.283,0.304-0.532,0.439-0.747
			c0.127-0.215,0.234-0.322,0.322-0.322c0.4,0.4,0.863,0.601,1.393,0.601c0.527,0,0.902-0.116,1.127-0.352
			c0.226-0.235,0.4-0.649,0.527-1.245l2.622-12.305c0.226-1.016,0.532-1.729,0.923-2.139c0.4-0.41,0.973-0.615,1.715-0.615h0.6
			c0.898,0,1.593,0.215,2.08,0.645c0.488,0.43,0.636,1.133,0.439,2.109l-2.77,12.876C273.837,41.502,273.203,42.874,272.333,43.734z
			 M275.542,22.435c-0.918,0-1.642-0.225-2.168-0.674c-0.526-0.449-0.796-1.074-0.806-1.875c0-0.801,0.298-1.484,0.894-2.051
			c0.604-0.566,1.367-0.845,2.285-0.835c0.918,0,1.642,0.22,2.168,0.659s0.791,1.06,0.791,1.86c0,0.811-0.293,1.499-0.879,2.065
			C277.222,22.152,276.459,22.435,275.542,22.435z"/>
		<path fill="#686969" d="M284.199,39.324c-2.9,0-5-0.654-6.299-1.963c-0.615-0.615-0.924-1.206-0.924-1.772
			c0-0.565,0.133-1.05,0.396-1.45c0.273-0.409,0.537-0.697,0.791-0.863c0.264-0.166,0.425-0.221,0.482-0.161
			c0.586,0.653,1.328,1.206,2.228,1.654c0.899,0.449,1.782,0.675,2.651,0.675s1.304-0.278,1.304-0.835
			c0-0.293-0.229-0.537-0.688-0.732c-0.195-0.088-0.576-0.249-1.143-0.483c-1.045-0.43-1.919-0.897-2.622-1.405
			c-0.946-0.684-1.411-1.67-1.392-2.959c0-1.582,0.547-2.847,1.641-3.794c1.104-0.947,2.676-1.421,4.717-1.421
			c2.578,0,4.526,0.659,5.846,1.978c0.498,0.498,0.746,1.04,0.746,1.626c-0.01,0.586-0.16,1.099-0.453,1.538
			c-0.293,0.43-0.592,0.732-0.895,0.908s-0.482,0.239-0.542,0.19c-0.537-0.703-1.19-1.279-1.963-1.729s-1.597-0.674-2.476-0.674
			s-1.318,0.288-1.318,0.864c0,0.225,0.137,0.415,0.41,0.571c0.264,0.156,0.962,0.459,2.095,0.908
			c1.133,0.449,2.08,0.996,2.842,1.641c0.763,0.645,1.138,1.547,1.128,2.709c0.01,1.523-0.552,2.734-1.685,3.633
			C287.943,38.876,286.318,39.324,284.199,39.324z"/>
	</g>
</g>
</svg>
